<svg width="61" height="61" viewBox="0 0 61 61" fill="none" xmlns="http://www.w3.org/2000/svg">
<circle cx="30.3431" cy="30.3431" r="30.3431" fill="#D77A61"/>
<g clip-path="url(#clip0_63_123)">
<path d="M30.1872 27.7804C24.2117 27.7804 15.7396 37.0178 15.7396 42.8488C15.7396 45.4749 17.757 47.0438 21.1379 47.0438C24.813 47.0438 27.2397 45.1566 30.1872 45.1566C33.1602 45.1566 35.5937 47.0438 39.2365 47.0438C42.6173 47.0438 44.6347 45.4749 44.6347 42.8488C44.6347 37.0178 36.1626 27.7804 30.1872 27.7804ZM19.1047 26.8315C18.3221 24.2242 15.9111 22.5356 13.7199 23.0593C11.5287 23.5831 10.3872 26.1212 11.1698 28.7285C11.9524 31.3358 14.3633 33.0244 16.5545 32.5007C18.7457 31.977 19.8872 29.4388 19.1047 26.8315ZM25.4797 25.2679C27.8078 24.6553 28.9727 21.51 28.0817 18.2427C27.1908 14.9755 24.5812 12.8241 22.253 13.4366C19.9249 14.0492 18.76 17.1945 19.651 20.4618C20.5419 23.729 23.1522 25.8811 25.4797 25.2679ZM46.6536 23.0601C44.4624 22.5364 42.0522 24.2249 41.2689 26.8323C40.4863 29.4396 41.6278 31.9777 43.819 32.5014C46.0103 33.0252 48.4204 31.3366 49.2038 28.7293C49.9864 26.1219 48.8448 23.5838 46.6536 23.0601ZM34.8947 25.2679C37.2228 25.8804 39.8324 23.729 40.7234 20.4618C41.6143 17.1945 40.4495 14.0499 38.1213 13.4366C35.7931 12.8234 33.1835 14.9755 32.2926 18.2427C31.4017 21.51 32.5665 24.6553 34.8947 25.2679Z" fill="white"/>
</g>
<defs>
<clipPath id="clip0_63_123">
<rect width="38.5269" height="38.5269" fill="white" transform="translate(10.9235 10.9236)"/>
</clipPath>
</defs>
</svg>
