<svg width="54" height="54" viewBox="0 0 54 54" fill="none" xmlns="http://www.w3.org/2000/svg">
<circle cx="26.7229" cy="26.7229" r="26.7229" fill="#D77A61"/>
<path d="M40.7857 23.5938H30.8214V14.875C30.8214 13.8051 29.8298 12.9375 28.6071 12.9375H26.3929C25.1702 12.9375 24.1786 13.8051 24.1786 14.875V23.5938H14.2143C12.9916 23.5938 12 24.4614 12 25.5312V27.4688C12 28.5386 12.9916 29.4062 14.2143 29.4062H24.1786V38.125C24.1786 39.1949 25.1702 40.0625 26.3929 40.0625H28.6071C29.8298 40.0625 30.8214 39.1949 30.8214 38.125V29.4062H40.7857C42.0084 29.4062 43 28.5386 43 27.4688V25.5312C43 24.4614 42.0084 23.5938 40.7857 23.5938Z" fill="white"/>
</svg>
