<svg width="39" height="40" viewBox="0 0 39 40" fill="none" xmlns="http://www.w3.org/2000/svg">
<circle cx="19.3997" cy="19.9983" r="19.3997" fill="#D77A61"/>
<g clip-path="url(#clip0_63_1136)">
<path d="M23.1014 19.7998L28.5029 14.3272C29.1657 13.6557 29.1657 12.5668 28.5029 11.8947L27.3024 10.6785C26.6396 10.0069 25.5649 10.0069 24.9015 10.6785L19.5 16.1511L14.0985 10.6785C13.4357 10.0069 12.361 10.0069 11.6976 10.6785L10.4971 11.8947C9.83429 12.5663 9.83429 13.6551 10.4971 14.3272L15.8986 19.7998L10.4971 25.2724C9.83429 25.9439 9.83429 27.0328 10.4971 27.7049L11.6976 28.9211C12.3604 29.5927 13.4357 29.5927 14.0985 28.9211L19.5 23.4486L24.9015 28.9211C25.5643 29.5927 26.6396 29.5927 27.3024 28.9211L28.5029 27.7049C29.1657 27.0333 29.1657 25.9445 28.5029 25.2724L23.1014 19.7998Z" fill="white"/>
</g>
<defs>
<clipPath id="clip0_63_1136">
<rect width="19" height="28" fill="white" transform="translate(10 5.79932)"/>
</clipPath>
</defs>
</svg>
