<svg width="39" height="39" viewBox="0 0 39 39" fill="none" xmlns="http://www.w3.org/2000/svg">
<circle cx="19.3997" cy="19.3997" r="19.3997" fill="#D77A61"/>
<g clip-path="url(#clip0_63_1424)">
<path d="M31.849 18.4297C29.4953 14.2965 24.8355 11.5 19.5 11.5C14.1645 11.5 9.50351 14.2984 7.15108 18.4301C7.05179 18.6068 7.00006 18.8021 7.00006 19.0002C7.00006 19.1983 7.05179 19.3936 7.15108 19.5703C9.50481 23.7035 14.1645 26.5 19.5 26.5C24.8355 26.5 29.4966 23.7016 31.849 19.5699C31.9483 19.3932 32 19.1979 32 18.9998C32 18.8017 31.9483 18.6064 31.849 18.4297ZM19.5 24.625C18.2639 24.625 17.0555 24.2951 16.0277 23.677C14.9999 23.0589 14.1988 22.1804 13.7258 21.1526C13.2527 20.1248 13.129 18.9938 13.3701 17.9026C13.6113 16.8115 14.2065 15.8092 15.0806 15.0225C15.9547 14.2359 17.0683 13.7001 18.2807 13.4831C19.4931 13.266 20.7498 13.3774 21.8918 13.8032C23.0338 14.2289 24.01 14.9499 24.6967 15.8749C25.3835 16.7999 25.75 17.8875 25.75 19C25.7504 19.7388 25.589 20.4704 25.2751 21.153C24.9611 21.8356 24.5008 22.4559 23.9203 22.9783C23.3399 23.5007 22.6507 23.915 21.8923 24.1976C21.1338 24.4801 20.3209 24.6254 19.5 24.625ZM19.5 15.25C19.1281 15.2547 18.7586 15.3045 18.4015 15.398C18.6959 15.7581 18.8371 16.2011 18.7997 16.6469C18.7622 17.0926 18.5485 17.5115 18.1973 17.8275C17.8461 18.1436 17.3807 18.336 16.8854 18.3697C16.3902 18.4034 15.8979 18.2763 15.4979 18.0113C15.2701 18.7666 15.3112 19.5672 15.6154 20.3004C15.9197 21.0336 16.4717 21.6624 17.1939 22.0984C17.916 22.5344 18.7719 22.7556 19.6411 22.7309C20.5102 22.7062 21.3489 22.4368 22.039 21.9607C22.7292 21.4845 23.236 20.8256 23.4882 20.0766C23.7405 19.3276 23.7254 18.5262 23.445 17.7854C23.1647 17.0445 22.6333 16.4014 21.9257 15.9466C21.218 15.4918 20.3696 15.2482 19.5 15.25Z" fill="white"/>
</g>
<defs>
<clipPath id="clip0_63_1424">
<rect width="25" height="20" fill="white" transform="translate(7 9)"/>
</clipPath>
</defs>
</svg>
